<svg width="48" height="48" viewBox="0 0 48 48" fill="none" xmlns="http://www.w3.org/2000/svg">
<rect width="48" height="48" fill="#252D2D"/>
<path fill-rule="evenodd" clip-rule="evenodd" d="M13 35.9998H27.602V19.2142H13V35.9998ZM14.9277 34.1201V21.0939H25.6743V34.1201H14.9277Z" fill="#45A0D2"/>
<path fill-rule="evenodd" clip-rule="evenodd" d="M31.3017 32.3923V15.6068H16.6997V17.4865H29.374V32.3923H31.3017Z" fill="#45A0D2"/>
<path fill-rule="evenodd" clip-rule="evenodd" d="M34.9999 28.7856V12.0001H20.3979V13.8798H33.0723V28.7856H34.9999Z" fill="#45A0D2"/>
<path fill-rule="evenodd" clip-rule="evenodd" d="M13 35.9998H27.602V19.2142H13V35.9998ZM14.9277 34.1201V21.0939H25.6743V34.1201H14.9277Z" fill="#05D5A3"/>
<path fill-rule="evenodd" clip-rule="evenodd" d="M31.3017 32.3923V15.6068H16.6997V17.4865H29.374V32.3923H31.3017Z" fill="#05D5A3"/>
<path fill-rule="evenodd" clip-rule="evenodd" d="M34.9999 28.7856V12.0001H20.3979V13.8798H33.0723V28.7856H34.9999Z" fill="#05D5A3"/>
</svg>
