<svg width="48" height="48" viewBox="0 0 48 48" fill="none" xmlns="http://www.w3.org/2000/svg">
<rect width="48" height="48" fill="#252D2D"/>
<path fill-rule="evenodd" clip-rule="evenodd" d="M12 24C12 30.628 17.372 36 24 36C30.6269 36 36 30.6281 36 24C36 17.3719 30.6269 12 24 12C17.372 12 12 17.372 12 24ZM24 34.1224C18.409 34.1224 13.8776 29.591 13.8776 24C13.8776 18.409 18.409 13.8776 24 13.8776C29.5901 13.8776 34.1224 18.409 34.1224 24C34.1224 29.591 29.5901 34.1224 24 34.1224Z" fill="#05D5A3"/>
<path d="M23.0864 27.0904H25.5951V29.5583H23.0864V27.0904ZM23.6017 24.5566C23.6017 24.132 23.681 23.7773 23.8395 23.4926C23.997 23.2078 24.2161 22.9168 24.4967 22.6184C24.7043 22.3921 24.8586 22.2002 24.9577 22.0416C25.0579 21.883 25.1069 21.7047 25.1069 21.5065C25.1069 21.0632 24.818 20.841 24.239 20.841C23.9052 20.841 23.5297 20.9182 23.1145 21.0726C22.6973 21.2259 22.2874 21.4336 21.8795 21.6954L21.1201 19.9325C21.4821 19.6258 21.9723 19.3796 22.5919 19.1939C23.2105 19.0093 23.8322 18.9154 24.456 18.9154C25.0527 18.9154 25.5867 19.0156 26.0561 19.2138C26.5266 19.413 26.8927 19.6915 27.1556 20.0482C27.4174 20.4049 27.5488 20.8149 27.5488 21.2749C27.5488 21.6098 27.48 21.9155 27.3444 22.1908C27.2098 22.4673 27.044 22.7061 26.8499 22.9095C26.6549 23.1129 26.4045 23.3455 26.0968 23.6073C25.7891 23.8702 25.5575 24.0914 25.399 24.2729C25.2404 24.4533 25.1382 24.6432 25.0933 24.8414L24.9984 25.3702H23.6017V24.5566Z" fill="#05D5A3"/>
</svg>
