<svg version="1" xmlns="http://www.w3.org/2000/svg" width="933.333" height="933.333" viewBox="0 0 700.000000 700.000000"><path d="M329.8.5c-.2.1-4.1.5-8.8.9-10 .7-22.5 2.2-29.5 3.6-2.7.5-6.1 1.2-7.5 1.4-43.1 7.9-90.8 27.3-127.5 51.9-6.9 4.6-29.7 21.7-30.5 22.8-.3.3-2.5 2.3-5 4.4-8.5 7-21.6 20.1-36.1 36.1-10.7 11.8-28.6 37-38.6 54.5-15.8 27.4-30.9 65.6-36.9 93.2-2 9-5.3 27.2-5.9 32.2-.4 3.3-.9 6.9-1.1 8C.6 319-.1 362.8 1.2 379c.9 10.2 2.6 23.2 4.2 31.5.2 1.1.6 3.6 1 5.5 4.9 27.2 15.6 59.5 28.3 85.7 44.9 92.8 127.9 161.1 227 186.8 7.2 1.9 14.2 3.6 15.5 3.9 1.3.2 5 .9 8.3 1.5 3.3.6 7.1 1.3 8.5 1.6 1.4.3 5.2.8 8.5 1.1 3.3.3 6.3.8 6.6.9 1.5 1 22.7 2 40.9 2 18.8 0 34.1-.8 43-2.1 14.4-2.1 29.5-4.8 34.5-6.1 3.3-.8 6.7-1.6 7.5-1.8 10.9-2.2 38.8-11.7 54.9-18.7 12.1-5.3 30.8-14.8 35.3-17.9 1.4-1.1 2.9-1.9 3.3-1.9 2.4 0 38.3-25.7 49.5-35.5 11.9-10.4 29.4-27.9 36.5-36.5 2.1-2.5 4.1-4.7 4.4-5 .4-.3 4.5-5.5 9.1-11.5 33.2-43.6 54.7-91.5 65.4-145.6 1.4-7 2.8-15.5 3.2-19 .3-3.5.8-6.7 1-7 .9-1.7 1.9-21.4 1.8-39.9 0-18.8-.6-33.1-1.9-42-.3-1.9-.7-5.6-1-8.1-.3-2.5-.7-5.4-.9-6.5-.2-1-1.1-6-2.1-10.9-8.5-45.6-27.6-91.5-54.3-130.5-5.6-8.2-19.4-26.5-21.1-28-.3-.3-3.5-3.8-7-7.8-30.9-35.3-74.7-67.5-117.2-86.3-25.5-11.2-59-21.7-81.4-25.3-5.4-.9-23.9-3.5-29.5-4.1-5.5-.7-52.6-1.6-53.2-1zm87.7 162.9c43.3 3.8 75.9 19.7 98.6 48.2 34.2 43 37.6 113.4 7.8 162.1-5.9 9.5-10 14.6-19.3 23.6-19.6 19.1-42.3 29.5-77.1 35.3-2.2.3-30.8.9-63.5 1.1-32.7.3-59.6.6-59.8.8-.1.1-.4 32.4-.5 71.6l-.2 71.4h-66V434h-87v-66.5h43.2c28.4 0 43.3-.3 43.4-1 .7-6.1.2-69.8-.5-70.3-.5-.3-20.1-.5-43.5-.5h-42.6l.1-32.6c.1-17.9.2-32.9.3-33.2 0-.4 19.3-.6 42.7-.6 28.8 0 42.8-.3 43.2-1.1.4-.5.7-15.4.7-33.1-.1-31.5-.1-32 2-32.3 3.9-.6 171.1 0 178 .6z"/><path d="M303.7 296.9c.2 37.2.3 68.3.3 69.1 0 1.4 6.4 1.5 55.8 1.4 30.6-.1 57.3-.4 59.2-.8 11.3-2.1 15.2-3.1 21-5.4 13.7-5.4 23.2-14 29.5-26.7 11.5-23.2 10.4-57.4-2.4-77.4-8-12.4-25-23.2-40.4-25.6-1.8-.3-5.6-.9-8.5-1.4-3-.4-30-.8-60-.9h-54.7l.2 67.7z"/></svg>