<svg{{ with .size }} height="{{ . }}" width="{{ . }}" {{ end }} viewBox="0 0 32 32" xmlns="http://www.w3.org/2000/svg">
<path d="M13.1288 14.9912C12.8827 15.159 12.5663 15.2597 12.1796 15.2597H10V13.0777H12.039C12.2499 13.0777 12.4257 13.0777 12.6014 13.1113C12.7772 13.1449 12.9178 13.212 13.0584 13.2792C13.1991 13.3799 13.3045 13.4806 13.3748 13.6148C13.4451 13.7491 13.4803 13.9505 13.4803 14.1519C13.4803 14.5212 13.3748 14.8233 13.1288 14.9912Z"/>
<path d="M12.8827 19.1537C12.7069 19.1873 12.496 19.2208 12.285 19.2208H10V16.636H12.3202C12.7772 16.636 13.1639 16.7367 13.4451 16.9382C13.7264 17.1731 13.867 17.5088 13.867 17.9788C13.867 18.2138 13.7967 18.4152 13.7264 18.583C13.6209 18.7509 13.5155 18.8516 13.3748 18.9523C13.2342 19.053 13.0584 19.1201 12.8827 19.1537Z"/>
<path d="M20.2656 15.2933C20.7226 15.2933 21.1093 15.4276 21.3554 15.6625C21.6014 15.8975 21.7772 16.2332 21.8475 16.7368H18.6836C18.6836 16.6255 18.7077 16.5143 18.736 16.3839C18.7419 16.357 18.7479 16.3291 18.7539 16.3004C18.7891 16.1325 18.8594 15.9647 19 15.8304C19.1406 15.6961 19.2812 15.5618 19.4922 15.4611C19.7031 15.3604 19.9492 15.2933 20.2656 15.2933Z"/>
<path fill-rule="evenodd" clip-rule="evenodd" d="M30 16.25C30 24.1201 23.6201 30.5 15.75 30.5C7.87994 30.5 1.5 24.1201 1.5 16.25C1.5 8.37994 7.87994 2 15.75 2C23.6201 2 30 8.37994 30 16.25ZM13.7041 11.6343C13.3174 11.5336 12.8956 11.5 12.4386 11.5H7.83333V20.765H12.544C12.9659 20.765 13.3877 20.6979 13.8096 20.5972C14.2315 20.4965 14.6182 20.3286 14.9345 20.1272C15.2509 19.9258 15.5322 19.6237 15.7079 19.288C15.8837 18.9523 15.9892 18.5495 15.9892 18.0795C15.9892 17.5088 15.8134 17.0053 15.5322 16.6025C15.2509 16.1996 14.7939 15.8975 14.1963 15.7297C14.6182 15.5283 14.9697 15.2597 15.1806 14.9576C15.4267 14.6555 15.5322 14.2527 15.5322 13.7827C15.5322 13.3799 15.4619 13.0106 15.3212 12.7085C15.1806 12.4064 14.9697 12.1714 14.6885 12.0035C14.4072 11.8357 14.0908 11.7014 13.7041 11.6343ZM20.3132 19.5901C19.7507 19.5901 19.3289 19.4558 19.0476 19.1873C18.7664 18.9187 18.5555 18.4152 18.5555 17.8781H23.6529C23.688 17.341 23.6529 16.871 23.5826 16.4011C23.4419 15.9311 23.231 15.4947 22.9498 15.1254C22.6685 14.7226 22.317 14.4541 21.86 14.2191C21.403 13.9841 20.8757 13.8834 20.278 13.8834C19.7156 13.8834 19.2586 13.9841 18.8015 14.1519C18.3797 14.3198 17.993 14.5883 17.6766 14.8905C17.3602 15.2261 17.1141 15.5954 16.9384 16.0318C16.7626 16.4682 16.6923 16.9382 16.6923 17.4417C16.6923 17.9788 16.7626 18.4488 16.9384 18.8852C17.079 19.3216 17.3251 19.6908 17.6414 19.9929C17.9578 20.3286 18.3094 20.5636 18.7664 20.7315C19.2234 20.8993 19.7156 21 20.278 21C21.0866 21 21.7545 20.7986 22.317 20.4629C22.8795 20.0936 23.3013 19.523 23.5826 18.7173H21.86C21.7897 18.9187 21.6139 19.1201 21.3327 19.3216C21.0514 19.4894 20.6999 19.5901 20.3132 19.5901ZM22.1061 12.1378H18.1688V13.0442H22.1061V12.1378Z"/>
</svg>
