<svg {{ with .size }} height="{{ . }}" width="{{ . }}" {{ end }} viewBox="0 0 32 32" xmlns="http://www.w3.org/2000/svg">
<path d="M20.4834 14.1773V18.1173H18.9215V14.2931C18.9215 13.487 18.5822 13.0778 17.9033 13.0778C17.1527 13.0778 16.7766 13.5632 16.7766 14.523V16.6162H15.2239V14.523C15.2239 13.5632 14.8477 13.0778 14.0971 13.0778C13.4182 13.0778 13.0788 13.487 13.0788 14.2931V18.1173H11.517V14.1773C11.517 13.3721 11.7221 12.7322 12.1342 12.2588C12.5591 11.7853 13.1156 11.5427 13.8065 11.5427C14.6057 11.5427 15.211 11.8497 15.6112 12.4638L16.0002 13.1156L16.3893 12.4638C16.7894 11.8497 17.3947 11.5427 18.194 11.5427C18.8848 11.5427 19.4413 11.7853 19.8663 12.2588C20.2783 12.7322 20.4834 13.3721 20.4834 14.1773Z"/>
<path fill-rule="evenodd" clip-rule="evenodd" d="M15.75 30.5C23.6201 30.5 30 24.1201 30 16.25C30 8.37994 23.6201 2 15.75 2C7.87994 2 1.5 8.37994 1.5 16.25C1.5 24.1201 7.87994 30.5 15.75 30.5ZM22.702 17.9923C22.4962 19.0505 20.8588 20.2085 18.9782 20.4329C17.9976 20.5498 17.0321 20.6573 16.0025 20.6101C14.3188 20.533 12.9902 20.2085 12.9902 20.2085C12.9902 20.3723 13.0003 20.5283 13.0205 20.6741C13.2394 22.3348 14.6682 22.4343 16.0216 22.4807C17.3876 22.5274 18.604 22.1441 18.604 22.1441L18.6601 23.3783C18.6601 23.3783 17.7046 23.8911 16.0025 23.9854C15.0639 24.0369 13.8985 23.9618 12.5412 23.6027C9.59725 22.824 9.09096 19.6878 9.0135 16.5056C8.99613 15.8109 8.99941 15.1454 9.00236 14.5455C9.00342 14.3297 9.00444 14.1218 9.00444 13.9247C9.00444 10.6708 11.1377 9.717 11.1377 9.717C12.2133 9.22329 14.059 9.01568 15.9779 9H16.025C17.9438 9.01568 19.7907 9.22329 20.8663 9.717C20.8663 9.717 22.9995 10.6708 22.9995 13.9247C22.9995 13.9247 23.0262 16.3255 22.702 17.9923Z"/>
</svg>
